<svg xmlns="http://www.w3.org/2000/svg" viewBox="0 0 608.31 67.74"><defs><style>.cls-1{fill:#fff;}</style></defs><g id="Layer_2" data-name="Layer 2"><g id="Layer_1-2" data-name="Layer 1"><path d="M303.32,0H284.24a23.92,23.92,0,0,0-17.19,7,23.52,23.52,0,0,0-6.67,12.29A24.3,24.3,0,0,0,236.58,0h-19a24.28,24.28,0,0,0-23.81,19.41,23.85,23.85,0,0,0-6.6-12.24A23.71,23.71,0,0,0,170,0H158.1a12.27,12.27,0,0,0-8.66,3.72,12.28,12.28,0,0,0-3.71,8.66v3.88a12.06,12.06,0,0,0,.53,3.55,23.76,23.76,0,0,0-12.44,6.66l-.57.6v-3A23.52,23.52,0,0,0,126.05,7a23.93,23.93,0,0,0-17.12-7H89.85a23.92,23.92,0,0,0-17.2,7,24.09,24.09,0,0,0-5.1,7.34H67V11.94A11.65,11.65,0,0,0,55.14,0H24.33A23.92,23.92,0,0,0,7.13,7,23.6,23.6,0,0,0,0,24.11,23.4,23.4,0,0,0,6.89,40.9,11.64,11.64,0,0,0,1.37,51v4.75A11.65,11.65,0,0,0,13.24,67.74H43.36A24.49,24.49,0,0,0,65.52,53.65v2.14A11.68,11.68,0,0,0,77.45,67.74h5.64a11.63,11.63,0,0,0,11.79-10h14a24,24,0,0,0,17.14-7c.47-.47.91-.94,1.34-1.43a23.61,23.61,0,0,0,6.47,11.4,23.87,23.87,0,0,0,17.12,7h19a24.4,24.4,0,0,0,16.93-6.53,22.37,22.37,0,0,0,6.93-12.57,24.35,24.35,0,0,0,23.73,19.1h19A24.34,24.34,0,0,0,260.36,48.4a23.37,23.37,0,0,0,6.74,12.37,24,24,0,0,0,17.17,7h22a11.66,11.66,0,0,0,11.88-11.95V51a12.1,12.1,0,0,0-1.87-6.57,24.84,24.84,0,0,0,4.12-3.25,23.35,23.35,0,0,0,7.25-17.11A23.52,23.52,0,0,0,320.45,7,24,24,0,0,0,303.32,0Z"/><path d="M604,30.05a24.39,24.39,0,0,0-5.23-5.49V11.94A11.64,11.64,0,0,0,586.93,0h-5.76a11.58,11.58,0,0,0-11.45,8.64A11.62,11.62,0,0,0,558.22,0h-5.65a11.67,11.67,0,0,0-11.93,11.94v5.92A23.48,23.48,0,0,0,534.25,7a23.91,23.91,0,0,0-17.09-7H498a23.91,23.91,0,0,0-17.09,7,23.45,23.45,0,0,0-6.46,11.16V11.94A11.64,11.64,0,0,0,462.59,0h-5.76A11.64,11.64,0,0,0,445,11.94V39.17H436.3V11.94A11.64,11.64,0,0,0,424.43,0h-5.76A11.59,11.59,0,0,0,408,6.46,11.66,11.66,0,0,0,397.36,0H353.51a11.68,11.68,0,0,0-11.95,11.94v9.94a11.65,11.65,0,0,0,11.95,11.87h5a11.68,11.68,0,0,0,9.92-5.18H379.8v5a5.77,5.77,0,0,1-1.58,4.23,3.38,3.38,0,0,1-2.79,1.36H363A11.61,11.61,0,0,0,351.14,51v4.75A11.65,11.65,0,0,0,363,67.74H375.4a32.81,32.81,0,0,0,24.11-10.3,34.31,34.31,0,0,0,7.39-11.38A23.34,23.34,0,0,0,414,60.76a23.88,23.88,0,0,0,17.09,7H450.2a23.88,23.88,0,0,0,17.09-7,23.56,23.56,0,0,0,6.47-11.15v6.18a11.65,11.65,0,0,0,11.87,11.95h5.76a11.65,11.65,0,0,0,11.87-11.95V28.57h8.65V55.79a11.66,11.66,0,0,0,11.88,11.95h5.76A11.56,11.56,0,0,0,541,58.9a11.61,11.61,0,0,0,11.54,8.84h5.65a11.68,11.68,0,0,0,11.93-11.95V48.15h8.65v7.64a11.68,11.68,0,0,0,11.93,11.95h5.65a11.68,11.68,0,0,0,11.93-11.95V43.7A23.32,23.32,0,0,0,604,30.05Z"/><path class="cls-1" d="M57.66,43.7a13.37,13.37,0,0,1-4.2,9.93,13.93,13.93,0,0,1-10.1,4.11H13.24c-1.25,0-1.87-.65-1.87-2V51a1.65,1.65,0,0,1,1.87-1.87H43.41a4.31,4.31,0,0,0,3.35-1.62,5.72,5.72,0,0,0,1.4-3.85,5.82,5.82,0,0,0-1.4-3.93,4.31,4.31,0,0,0-3.35-1.62H24.33a13.94,13.94,0,0,1-10.15-4.1A13.41,13.41,0,0,1,10,24.11a13.51,13.51,0,0,1,4.18-10A13.86,13.86,0,0,1,24.33,10H55.14A1.69,1.69,0,0,1,57,11.94v9.87a1.69,1.69,0,0,1-1.88,1.94h-5a1.73,1.73,0,0,1-1.94-2V20.47a1.67,1.67,0,0,0-1.88-1.9h-22a4.29,4.29,0,0,0-3.39,1.59,5.79,5.79,0,0,0-1.38,3.92A5.81,5.81,0,0,0,20.87,28a4.24,4.24,0,0,0,3.39,1.63H43.34a13.92,13.92,0,0,1,10.11,4.14A13.5,13.5,0,0,1,57.66,43.7Z"/><path class="cls-1" d="M123.25,33.62a13.48,13.48,0,0,1-4.21,10,14,14,0,0,1-10.14,4.14h-22A1.66,1.66,0,0,0,85,49.6v6.19a1.71,1.71,0,0,1-1.93,2H77.45a1.71,1.71,0,0,1-1.93-2V24.11a13.54,13.54,0,0,1,4.17-10A13.9,13.9,0,0,1,89.85,10h19.08A13.92,13.92,0,0,1,119,14.14a13.46,13.46,0,0,1,4.21,10Zm-9.5,0V24.06a5.67,5.67,0,0,0-1.41-3.9A4.35,4.35,0,0,0,109,18.57H89.8a4.31,4.31,0,0,0-3.4,1.59A5.74,5.74,0,0,0,85,24.06V37.21a1.69,1.69,0,0,0,1.88,1.95H109a4.32,4.32,0,0,0,3.36-1.62A5.82,5.82,0,0,0,113.75,33.6Z"/><path class="cls-1" d="M184.24,44.27a12.57,12.57,0,0,1-4.14,9.61A14.3,14.3,0,0,1,170,57.74H151a13.82,13.82,0,0,1-10.08-4.14,13.56,13.56,0,0,1-4.17-10A14.24,14.24,0,0,1,151,29.37h22.18a1.4,1.4,0,0,0,1.58-1.59V24.11a5.83,5.83,0,0,0-1.4-3.89A4.27,4.27,0,0,0,170,18.57H158.1a2.34,2.34,0,0,1-1.62-.72,2.17,2.17,0,0,1-.75-1.59V12.38a2.28,2.28,0,0,1,.79-1.59A2.26,2.26,0,0,1,158.1,10H170a13.65,13.65,0,0,1,10.08,4.21,13.76,13.76,0,0,1,4.18,10.05Zm-9.51,0V39.66a1.4,1.4,0,0,0-1.58-1.58H151a4.28,4.28,0,0,0-3.34,1.62,6.11,6.11,0,0,0,0,7.81A4.23,4.23,0,0,0,151,49.17h19a4.71,4.71,0,0,0,3.39-1.33A4.76,4.76,0,0,0,174.73,44.27Z"/><path class="cls-1" d="M250.84,43.55a14.27,14.27,0,0,1-14.26,14.19h-19a14.25,14.25,0,0,1-14.25-14.19V24.11a13.54,13.54,0,0,1,4.17-10A13.82,13.82,0,0,1,217.57,10h19a13.78,13.78,0,0,1,10.08,4.14,13.55,13.55,0,0,1,4.18,10v3.17c0,1.58-.53,2.38-1.59,2.38h-5.54a2.81,2.81,0,0,1-2.38-2.38V24.11a5.76,5.76,0,0,0-1.4-3.92,4.3,4.3,0,0,0-3.35-1.62h-19a4.28,4.28,0,0,0-3.34,1.62,5.82,5.82,0,0,0-1.41,3.94V43.61a5.78,5.78,0,0,0,1.41,3.93,4.26,4.26,0,0,0,3.34,1.63h19a4.28,4.28,0,0,0,3.35-1.63,5.84,5.84,0,0,0,1.4-3.95V40.4a2.32,2.32,0,0,1,.79-1.59,2.3,2.3,0,0,1,1.59-.8h5.54q1.59,0,1.59,2.37Z"/><path class="cls-1" d="M317.65,24.11a13.34,13.34,0,0,1-4.22,9.94,14,14,0,0,1-10.13,4.1h-22c-1.26,0-1.88.65-1.88,2v3.6a5.8,5.8,0,0,0,1.37,3.85,4.3,4.3,0,0,0,3.41,1.62h22.07A1.66,1.66,0,0,1,308.15,51v4.75a1.69,1.69,0,0,1-1.88,2h-22a14,14,0,0,1-10.17-4.11,13.39,13.39,0,0,1-4.18-9.93V24.11a13.54,13.54,0,0,1,4.17-10A13.89,13.89,0,0,1,284.24,10h19.08a13.92,13.92,0,0,1,10.12,4.14A13.46,13.46,0,0,1,317.65,24.11Zm-9.57,0a5.72,5.72,0,0,0-1.41-3.92,4.35,4.35,0,0,0-3.36-1.59H284.18a4.32,4.32,0,0,0-3.39,1.59,5.84,5.84,0,0,0-1.37,3.92V27.7a1.66,1.66,0,0,0,1.88,1.88h22A4.3,4.3,0,0,0,306.67,28,5.7,5.7,0,0,0,308.08,24.08Z"/><path class="cls-1" d="M399.3,32.9a24.42,24.42,0,0,1-7,17.6,22.68,22.68,0,0,1-16.92,7.24H363c-1.25,0-1.87-.65-1.87-2V51A1.66,1.66,0,0,1,363,49.17h12.41a13.31,13.31,0,0,0,10.14-4.58,15.68,15.68,0,0,0,4.23-11V20.45a1.66,1.66,0,0,0-1.88-1.88H362.37a1.7,1.7,0,0,0-1.95,1.9v1.38a1.67,1.67,0,0,1-1.87,1.9h-5c-1.3,0-1.95-.62-1.95-1.87V11.94A1.72,1.72,0,0,1,353.51,10h43.85a1.72,1.72,0,0,1,1.94,1.94Z"/><path class="cls-1" d="M464.46,43.77a13.3,13.3,0,0,1-4.18,9.86,13.83,13.83,0,0,1-10.08,4.11H431.05A13.85,13.85,0,0,1,421,53.63a13.33,13.33,0,0,1-4.17-9.86V11.94c0-1.29.62-1.94,1.87-1.94h5.76a1.69,1.69,0,0,1,1.87,1.94V43.7a5.72,5.72,0,0,0,1.4,3.85,4.31,4.31,0,0,0,3.35,1.62H450.2a4.28,4.28,0,0,0,3.35-1.62A5.68,5.68,0,0,0,455,43.7V11.94c0-1.29.62-1.94,1.87-1.94h5.76a1.69,1.69,0,0,1,1.87,1.94Z"/><path class="cls-1" d="M531.42,55.79c0,1.3-.63,2-1.87,2h-5.76a1.69,1.69,0,0,1-1.88-2V24.05a5.62,5.62,0,0,0-1.4-3.89,4.33,4.33,0,0,0-3.35-1.59H498a4.34,4.34,0,0,0-3.35,1.59,5.66,5.66,0,0,0-1.4,3.89V55.79c0,1.3-.63,2-1.87,2h-5.76c-1.25,0-1.87-.65-1.87-2V24a13.36,13.36,0,0,1,4.17-9.87A13.86,13.86,0,0,1,498,10h19.15a13.86,13.86,0,0,1,10.08,4.1A13.34,13.34,0,0,1,531.42,24Z"/><path class="cls-1" d="M598.31,55.79a1.72,1.72,0,0,1-1.93,2h-5.65a1.71,1.71,0,0,1-1.93-2V43.7a5.82,5.82,0,0,0-1.4-3.93A4.32,4.32,0,0,0,584,38.15H562c-1.25,0-1.87.65-1.87,2V55.79a1.72,1.72,0,0,1-1.93,2h-5.65a1.71,1.71,0,0,1-1.93-2V11.94A1.71,1.71,0,0,1,552.57,10h5.65a1.71,1.71,0,0,1,1.93,1.94V27.71A1.65,1.65,0,0,0,562,29.58h12.44A4.38,4.38,0,0,0,577.89,28a5.67,5.67,0,0,0,1.41-3.85V11.94c0-1.29.62-1.94,1.87-1.94h5.76c1.25,0,1.87.65,1.87,1.94V24.11a13.17,13.17,0,0,1-.65,4.11,1.75,1.75,0,0,0,1.22,2.37,14.52,14.52,0,0,1,6.47,5.19,13.52,13.52,0,0,1,2.47,7.92Z"/></g></g></svg>