<?xml version="1.0" standalone="no"?>
<!DOCTYPE svg PUBLIC "-//W3C//DTD SVG 20010904//EN"
 "http://www.w3.org/TR/2001/REC-SVG-20010904/DTD/svg10.dtd">
<svg version="1.0" xmlns="http://www.w3.org/2000/svg"
 width="960.000000pt" height="960.000000pt" viewBox="0 0 960.000000 960.000000"
 preserveAspectRatio="xMidYMid meet">
<metadata>
Created by potrace 1.14, written by Peter Selinger 2001-2017
</metadata>
<g transform="translate(0.000000,960.000000) scale(0.100000,-0.100000)"
fill="#000000" stroke="none">
<path d="M1716 6684 c-392 -71 -732 -366 -863 -749 -74 -217 -71 -513 7 -726
145 -398 507 -687 925 -738 59 -7 374 -11 910 -11 502 0 834 -4 855 -10 151
-42 274 -207 287 -387 15 -193 -83 -377 -239 -449 l-63 -29 -1275 -5 c-1010
-4 -1280 -8 -1297 -18 -51 -28 -54 -52 -51 -332 l3 -260 33 -32 32 -33 1338 0
1337 0 100 28 c120 33 295 117 385 186 83 62 224 209 272 282 169 256 224 556
158 859 -46 215 -145 385 -324 558 -162 157 -324 245 -547 298 -66 16 -165 18
-969 23 l-895 6 -45 24 c-73 39 -107 69 -150 133 -104 156 -109 384 -11 537
42 64 110 126 169 154 l47 22 948 3 c1047 3 986 6 1027 -61 16 -26 20 -50 20
-135 0 -120 14 -162 62 -192 31 -19 50 -20 291 -20 285 0 303 3 332 61 14 26
16 91 16 483 0 336 -3 460 -12 480 -7 14 -27 35 -44 46 -32 20 -55 20 -1361
19 -1102 -1 -1342 -3 -1408 -15z"/>
<path d="M5039 6661 l-39 -39 0 -462 c0 -417 2 -465 17 -491 33 -55 55 -59
341 -59 248 0 260 1 286 21 46 36 56 68 56 186 0 89 3 113 20 140 40 67 -32
63 1150 63 1208 0 1121 6 1161 -76 21 -45 21 -46 16 -667 -4 -588 -6 -627 -26
-719 -57 -260 -176 -476 -366 -663 -176 -174 -392 -277 -638 -304 -57 -7 -320
-11 -637 -11 l-540 0 -38 -34 -37 -34 0 -272 0 -272 37 -34 38 -34 612 0 c672
0 724 4 936 60 336 90 638 275 881 540 262 286 413 576 498 962 l27 123 3
1018 4 1019 -39 39 -40 39 -1822 0 -1822 0 -39 -39z"/>
</g>
</svg>
