<?xml version="1.0" standalone="no"?>
<!DOCTYPE svg PUBLIC "-//W3C//DTD SVG 20010904//EN"
 "http://www.w3.org/TR/2001/REC-SVG-20010904/DTD/svg10.dtd">
<svg version="1.0" xmlns="http://www.w3.org/2000/svg"
 width="960.000000pt" height="960.000000pt" viewBox="0 0 960.000000 960.000000"
 preserveAspectRatio="xMidYMid meet">
<metadata>
Created by potrace 1.14, written by Peter Selinger 2001-2017
</metadata>
<g transform="translate(0.000000,960.000000) scale(0.100000,-0.100000)"
fill="#000000" stroke="none">
<path d="M1769 7496 c-2 -2 -33 -6 -69 -9 -105 -9 -264 -45 -389 -88 -64 -22
-125 -43 -136 -46 -11 -3 -28 -13 -39 -22 -10 -9 -19 -14 -20 -13 -2 6 -57
-20 -97 -45 -20 -12 -40 -19 -43 -16 -3 4 -6 1 -6 -5 0 -7 -7 -12 -15 -12 -8
0 -15 -4 -15 -10 0 -5 -5 -10 -10 -10 -10 0 -88 -47 -100 -60 -3 -3 -29 -22
-58 -43 -29 -21 -67 -50 -85 -65 -53 -45 -267 -262 -267 -271 0 -4 -11 -21
-26 -37 -47 -54 -139 -199 -190 -302 -70 -139 -145 -347 -160 -442 -3 -19 -10
-55 -16 -80 -5 -25 -13 -72 -16 -105 -10 -84 -8 -419 2 -485 4 -30 10 -68 12
-83 10 -75 68 -286 94 -344 5 -13 14 -33 19 -45 21 -57 135 -278 143 -278 4 0
8 -5 8 -10 0 -23 165 -237 232 -302 l28 -26 -49 -36 c-82 -59 -104 -78 -176
-161 -92 -106 -162 -255 -202 -425 -3 -14 -7 -176 -9 -360 -3 -302 -2 -344 15
-421 11 -47 27 -104 36 -125 9 -21 18 -43 19 -49 5 -22 61 -123 94 -170 34
-48 151 -169 202 -210 73 -57 238 -137 310 -150 18 -3 37 -8 41 -11 27 -17
215 -19 1444 -19 1199 0 1478 4 1504 19 3 2 24 7 46 10 61 10 165 35 215 52
25 9 50 17 55 18 6 2 19 7 30 11 11 5 42 17 69 27 108 41 355 177 364 200 2 4
8 8 13 8 11 0 130 94 194 152 22 21 43 38 48 38 4 0 7 4 7 8 0 5 26 35 58 68
31 32 68 72 80 89 19 24 25 27 32 15 6 -8 10 -24 10 -35 0 -56 89 -237 165
-333 31 -41 127 -133 175 -169 99 -74 246 -142 340 -158 19 -3 53 -10 75 -15
43 -10 1383 -7 1447 3 20 3 56 9 80 12 24 3 50 8 58 10 8 2 31 6 50 9 36 6 69
12 108 21 12 3 32 7 43 10 12 2 47 12 78 21 31 9 61 17 66 19 6 1 17 4 25 7 8
3 44 16 80 29 67 23 106 39 225 92 89 40 299 156 303 168 2 5 8 9 13 9 12 0
123 76 189 129 24 20 56 45 69 56 100 80 287 269 386 390 22 27 46 54 53 61 6
7 12 17 12 23 0 6 4 11 8 11 4 0 15 12 24 27 9 16 24 37 33 48 31 40 115 173
115 184 0 6 5 11 10 11 6 0 10 4 10 9 0 4 18 40 39 80 22 39 36 71 33 71 -4 0
-2 4 3 8 13 10 65 119 65 137 0 8 5 15 10 15 6 0 9 3 8 8 -1 7 5 27 24 72 6
14 21 59 34 100 14 41 27 82 31 90 8 19 7 15 23 85 16 68 17 72 20 83 1 4 3
12 5 17 1 6 3 12 4 15 3 6 6 25 15 85 3 22 8 51 11 65 6 28 11 67 22 160 11
90 10 2113 -1 2175 -4 28 -12 58 -17 68 -6 9 -8 17 -5 17 18 0 -96 244 -131
278 -7 7 -13 17 -13 22 0 9 -151 165 -187 192 -12 9 -32 22 -45 29 -13 6 -25
15 -28 19 -3 4 -43 25 -90 48 -74 35 -122 52 -192 68 -10 2 -28 7 -40 11 -13
4 -873 9 -1913 10 -1611 2 -1899 0 -1950 -12 -33 -8 -60 -14 -60 -14 0 1 -33
-9 -74 -21 -61 -18 -78 -20 -102 -10 -15 7 -32 12 -36 12 -4 0 -18 4 -31 9
-13 5 -35 11 -50 14 -15 3 -38 8 -52 12 -25 8 -2793 17 -2801 9z"/>
</g>
</svg>
